# Blender v3.0.0 OBJ File: 'grass.blend'
# www.blender.org
mtllib grass.mtl
o grass_Plan
v -0.000000 0.200057 0.025000
v 0.000000 0.000057 0.020000
v -0.000000 0.200057 -0.025000
v 0.000000 0.000057 -0.020000
v -0.000000 0.400057 0.015000
v -0.000000 0.400057 -0.015000
v -0.000000 0.550057 -0.000000
vt 0.454548 0.363827
vt 0.463638 0.000212
vt 0.536361 0.000212
vt 0.545452 0.363827
vt 0.527271 0.727441
vt 0.472729 0.727441
vt 0.500001 1.000152
vn 1.0000 0.0000 0.0000
usemtl None
s off
f 1/1/1 2/2/1 4/3/1 3/4/1
f 1/1/1 3/4/1 6/5/1 5/6/1
f 5/6/1 6/5/1 7/7/1
